<svg width="14" height="14" viewBox="0 0 14 14" fill="none" xmlns="http://www.w3.org/2000/svg">
<ellipse cx="7.00008" cy="4.66683" rx="2.33333" ry="2.33333" stroke="white" stroke-linecap="round"/>
<path fill-rule="evenodd" clip-rule="evenodd" d="M8.48158 9.00033C7.78999 8.84111 7.06072 8.79487 6.34172 8.86586C5.35486 8.9633 4.41684 9.2788 3.64827 9.78432C2.87959 10.2899 2.30284 10.9718 2.02147 11.7594C1.92857 12.0195 2.06406 12.3056 2.3241 12.3985C2.58415 12.4914 2.87027 12.3559 2.96318 12.0958C3.15958 11.5461 3.57861 11.0271 4.19779 10.6198C4.81708 10.2125 5.59669 9.94429 6.43999 9.86102C6.56699 9.84848 6.69425 9.84025 6.82137 9.83628C7.06632 9.34095 7.57675 9.00033 8.16675 9.00033L8.48158 9.00033Z" fill="white"/>
<path d="M10.5 8.1665L10.5 12.8332" stroke="white" stroke-linecap="round"/>
<path d="M12.8333 10.5L8.16668 10.5" stroke="white" stroke-linecap="round"/>
</svg>
